ply
format ascii 1.0
element vertex 1044
property double x
property double y
property double z
element face 240
property list uchar int vertex_indices
end_header
153.294 3.01302 93.6387
153.191 46.3893 93.6312
153.264 46.3893 93.6312
152.98 47.7767 93.6309
66.5548 47.8326 93.6331
66.7281 3.11143 93.6409
152.091 46.5538 66.598
152.433 46.5538 66.5981
155.711 49.961 71.9749
152.038 49.9614 71.9749
67.4429 46.5497 66.576
67.7962 46.5497 66.576
152.091 46.5538 66.598
152.038 49.9614 71.9749
64.1916 49.9708 71.9734
152.097 46.2045 66.0468
152.433 46.5538 66.5981
152.091 46.5538 66.598
120.636 46.6496 50.5967
120.474 4.39354 50.7661
113.207 4.41115 55.4506
113.046 46.6194 55.4897
152.101 4.4606 66.333
152.046 0.896473 71.9749
64.1692 0.939776 71.9734
67.5192 4.44801 66.4175
67.7967 4.44805 66.4172
152.3 4.46063 66.3328
155.746 0.89465 71.975
152.046 0.896473 71.9749
152.101 4.4606 66.333
152.104 4.66392 66.0112
152.3 4.46063 66.3328
152.101 4.4606 66.333
103.18 46.6273 54.1165
103.086 4.40397 54.0418
96.2791 4.37331 46.6317
96.2911 24.0133 46.632
96.2936 28.0165 46.632
96.305 46.6725 46.6323
120.474 4.39354 50.7661
123.624 4.3737 45.6844
123.628 46.6791 45.769
120.636 46.6496 50.5967
113.207 4.41115 55.4506
103.086 4.40397 54.0418
103.18 46.6273 54.1165
113.046 46.6194 55.4897
152.3 4.46063 66.3328
152.104 4.45931 66.011
152.104 4.66392 66.0112
152.433 46.5538 66.5981
152.097 46.2045 66.0468
152.097 46.5571 66.0471
155.714 46.5212 71.9749
152.433 46.5538 66.5981
155.711 49.961 71.9749
155.743 4.48371 71.975
152.3 4.46063 66.3328
152.104 4.66392 66.0112
152.097 46.2045 66.0468
152.433 46.5538 66.5981
155.714 46.5212 71.9749
155.746 0.89465 71.975
152.3 4.46063 66.3328
155.743 4.48371 71.975
64.19 46.5167 71.9734
67.4429 46.5497 66.576
64.1916 49.9708 71.9734
64.1708 4.46971 71.9734
67.5192 4.44801 66.4175
67.7925 4.44624 65.9641
67.7909 46.5532 65.9986
67.4429 46.5497 66.576
64.19 46.5167 71.9734
64.1692 0.939776 71.9734
67.5192 4.44801 66.4175
64.1708 4.46971 71.9734
68.254 4.548 91.4027
68.0302 4.33724 91.731
68.0271 4.54797 91.4031
151.568 4.56006 91.2344
151.853 4.30445 91.6317
153.294 3.01302 93.6387
66.7281 3.11143 93.6409
68.0302 4.33724 91.731
68.254 4.548 91.4027
151.857 4.5601 91.2339
151.853 4.30445 91.6317
151.568 4.56006 91.2344
68.025 46.3988 91.3765
151.848 46.4024 91.4655
152.324 46.4024 91.466
152.98 47.7767 93.6309
66.5548 47.8326 93.6331
68.0261 46.4716 91.4912
151.853 4.56169 91.6324
151.853 4.30445 91.6317
151.568 4.56006 91.2344
153.294 3.01302 93.6387
151.853 4.30445 91.6317
151.853 4.56169 91.6324
151.845 46.4007 91.7534
153.191 46.3893 93.6312
152.567 4.33514 34.9325
152.41 4.3341 34.6772
152.41 4.50899 34.6769
154.047 4.34503 37.3491
154.046 2.69101 37.3491
152.567 4.33514 34.9325
154.076 46.7319 37.3476
154.047 4.34503 37.3491
152.567 4.33514 34.9325
152.41 4.50899 34.6769
152.406 34.1276 34.6348
152.404 46.7484 34.6169
152.593 46.7465 34.926
154.078 48.357 37.3476
154.076 46.7319 37.3476
152.593 46.7465 34.926
67.5027 33.3829 34.6913
67.5521 33.383 34.6132
67.5024 37.2013 34.6811
67.3902 4.3222 34.9503
67.5047 4.32149 34.7692
67.5047 4.44566 34.7689
65.87 4.33158 37.3555
65.8729 2.68584 37.3555
67.3902 4.3222 34.9503
65.7962 46.7275 37.354
65.87 4.33158 37.3555
67.3902 4.3222 34.9503
67.5047 4.44566 34.7689
67.5027 33.3829 34.6913
67.5024 37.2013 34.6811
67.5018 46.744 34.6555
67.3901 46.7429 34.8321
65.7932 48.4222 37.354
65.7962 46.7275 37.354
67.3901 46.7429 34.8321
96.1933 4.32717 35.0912
96.1932 4.227 35.0906
96.095 4.32656 34.9443
96.2211 47.0492 35.3223
96.2209 46.7413 35.3207
95.915 46.7441 34.8635
97.5799 46.729 37.3517
96.2209 46.7413 35.3207
96.2211 47.0492 35.3223
97.5749 48.3987 37.3517
97.7067 4.33644 37.3532
96.1933 4.32717 35.0912
96.2209 46.7413 35.3207
97.5799 46.729 37.3517
97.7117 2.6877 37.3532
96.1932 4.227 35.0906
96.1933 4.32717 35.0912
97.7067 4.33644 37.3532
123.704 46.7429 35.2887
123.979 46.7453 34.8945
123.704 47.0078 35.2887
123.699 4.08713 35.2966
123.949 4.3308 34.9385
123.699 4.33219 35.2966
122.264 46.7303 37.3499
123.704 46.7429 35.2887
123.704 47.0078 35.2887
122.264 48.3805 37.3499
122.264 4.34018 37.3514
123.699 4.33219 35.2966
123.704 46.7429 35.2887
122.264 46.7303 37.3499
122.264 2.68914 37.3514
123.699 4.08713 35.2966
123.699 4.33219 35.2966
122.264 4.34018 37.3514
89.1264 27.6953 34.5142
94.6967 28.9584 34.5373
89.9852 29.5966 33.8032
146.136 27.6605 34.5193
148.071 28.9662 34.5427
145.646 29.6261 33.7843
152.046 4.48314 71.9749
152.046 0.896473 71.9749
155.746 0.89465 71.975
155.743 4.48371 71.975
152.039 46.521 71.9749
152.046 4.48314 71.9749
155.743 4.48371 71.975
155.714 46.5212 71.9749
152.038 49.9614 71.9749
152.039 46.521 71.9749
155.714 46.5212 71.9749
155.711 49.961 71.9749
67.846 46.5169 71.9735
67.8479 4.47027 71.9735
152.046 4.48314 71.9749
152.039 46.521 71.9749
64.19 46.5167 71.9734
67.846 46.5169 71.9735
152.039 46.521 71.9749
152.038 49.9614 71.9749
64.1916 49.9708 71.9734
64.1708 4.46971 71.9734
67.8479 4.47027 71.9735
67.846 46.5169 71.9735
64.19 46.5167 71.9734
64.1692 0.939776 71.9734
152.046 0.896473 71.9749
152.046 4.48314 71.9749
67.8479 4.47027 71.9735
64.1708 4.46971 71.9734
152.324 46.4024 91.466
153.264 46.3893 93.6312
152.98 47.7767 93.6309
151.857 4.5601 91.2339
151.853 4.30445 91.6317
151.853 4.56169 91.6324
152.046 4.48314 71.9749
151.857 4.5601 91.2339
151.853 4.56169 91.6324
151.845 46.4007 91.7534
151.848 46.4024 91.4655
152.039 46.521 71.9749
152.091 46.5538 66.598
152.039 46.521 71.9749
152.038 49.9614 71.9749
152.101 4.4606 66.333
152.046 0.896473 71.9749
152.046 4.48314 71.9749
152.097 46.2045 66.0468
152.091 46.5538 66.598
152.097 46.5571 66.0471
152.104 4.66392 66.0112
152.101 4.4606 66.333
152.046 4.48314 71.9749
152.039 46.521 71.9749
152.091 46.5538 66.598
152.097 46.2045 66.0468
152.104 4.45931 66.011
152.101 4.4606 66.333
152.104 4.66392 66.0112
152.377 46.7318 37.3478
152.384 4.34478 37.3492
152.104 4.45931 66.011
152.104 4.66392 66.0112
152.097 46.2045 66.0468
152.097 46.5571 66.0471
152.408 4.33512 34.9325
152.384 2.69091 37.3493
152.384 4.34478 37.3492
152.41 4.50899 34.6769
152.41 4.3341 34.6772
152.408 4.33512 34.9325
152.404 46.7484 34.6169
152.406 34.1276 34.6348
152.41 4.50899 34.6769
152.408 4.33512 34.9325
152.384 4.34478 37.3492
152.377 46.7318 37.3478
152.401 46.7465 34.9258
152.743 33.4473 0.136901
152.406 33.3975 34.6219
152.406 34.1276 34.6348
152.404 46.7484 34.6169
152.741 46.9582 0.144193
152.746 17.6355 0.128367
152.411 17.7067 34.343
152.406 33.3975 34.6219
152.743 33.4473 0.136901
152.748 4.19601 0.121114
152.41 4.3341 34.6772
152.41 4.50899 34.6769
152.406 34.1276 34.6348
152.406 33.3975 34.6219
152.411 17.7067 34.343
152.746 17.6355 0.128367
68.0271 4.54797 91.4031
68.0302 4.33724 91.731
68.0302 4.54927 91.7298
67.846 46.5169 71.9735
67.8479 4.47027 71.9735
68.0271 4.54797 91.4031
68.0302 4.54927 91.7298
68.0261 46.4716 91.4912
68.025 46.3988 91.3765
67.7925 4.44624 65.9641
67.7967 4.44805 66.4172
67.8479 4.47027 71.9735
67.846 46.5169 71.9735
67.7962 46.5497 66.576
67.7909 46.5532 65.9986
67.5267 46.7275 37.3539
67.5286 4.33184 37.3553
67.7925 4.44624 65.9641
67.7909 46.5532 65.9986
67.5064 4.32222 34.9503
67.5287 2.68593 37.3554
67.5286 4.33184 37.3553
67.5047 4.44566 34.7689
67.5047 4.32149 34.7692
67.5064 4.32222 34.9503
67.5018 46.744 34.6555
67.5024 37.2013 34.6811
67.5027 33.3829 34.6913
67.5047 4.44566 34.7689
67.5064 4.32222 34.9503
67.5286 4.33184 37.3553
67.5267 46.7275 37.3539
67.5034 46.7429 34.8322
67.502 33.383 34.6132
67.5027 33.3829 34.6913
67.5024 37.2013 34.6811
67.1836 33.4328 0.102943
67.502 33.383 34.6132
67.5024 37.2013 34.6811
67.5018 46.744 34.6555
67.1831 46.9542 0.110242
67.1843 17.6571 0.0944282
67.5001 17.7282 34.335
67.502 33.383 34.6132
67.1836 33.4328 0.102943
67.1848 4.1828 0.0871553
67.5047 4.32149 34.7692
67.5047 4.44566 34.7689
67.5027 33.3829 34.6913
67.502 33.383 34.6132
67.5001 17.7282 34.335
67.1843 17.6571 0.0944282
68.254 4.548 91.4027
68.0302 4.54927 91.7298
68.0271 4.54797 91.4031
151.857 4.5601 91.2339
151.853 4.56169 91.6324
151.568 4.56006 91.2344
67.8479 4.47027 71.9735
152.046 4.48314 71.9749
151.857 4.5601 91.2339
151.568 4.56006 91.2344
68.254 4.548 91.4027
68.0271 4.54797 91.4031
67.7967 4.44805 66.4172
67.8479 4.47027 71.9735
64.1708 4.46971 71.9734
67.5192 4.44801 66.4175
152.101 4.4606 66.333
152.046 4.48314 71.9749
67.8479 4.47027 71.9735
67.7967 4.44805 66.4172
152.3 4.46063 66.3328
155.743 4.48371 71.975
152.046 4.48314 71.9749
152.101 4.4606 66.333
152.104 4.45931 66.011
152.3 4.46063 66.3328
152.101 4.4606 66.333
67.7925 4.44624 65.9641
67.7967 4.44805 66.4172
67.5192 4.44801 66.4175
123.684 4.3404 37.3513
123.624 4.3737 45.6844
120.474 4.39354 50.7661
113.207 4.41115 55.4506
103.086 4.40397 54.0418
96.2791 4.37331 46.6317
96.2101 4.33621 37.3533
97.7067 4.33644 37.3532
122.264 4.34018 37.3514
152.384 4.34478 37.3492
152.104 4.45931 66.011
152.101 4.4606 66.333
67.7967 4.44805 66.4172
67.7925 4.44624 65.9641
67.5286 4.33184 37.3553
96.2101 4.33621 37.3533
96.2791 4.37331 46.6317
103.086 4.40397 54.0418
113.207 4.41115 55.4506
120.474 4.39354 50.7661
123.624 4.3737 45.6844
123.684 4.3404 37.3513
123.699 4.33219 35.2966
123.684 4.3404 37.3513
122.264 4.34018 37.3514
96.1933 4.32717 35.0912
97.7067 4.33644 37.3532
96.2101 4.33621 37.3533
67.5064 4.32222 34.9503
67.5286 4.33184 37.3553
65.87 4.33158 37.3555
67.3902 4.3222 34.9503
96.095 4.32656 34.9443
96.1933 4.32717 35.0912
96.2101 4.33621 37.3533
67.5286 4.33184 37.3553
67.5064 4.32222 34.9503
96.1922 4.32658 34.9443
96.1933 4.32717 35.0912
96.095 4.32656 34.9443
123.702 4.33076 34.9385
123.699 4.33219 35.2966
122.264 4.34018 37.3514
97.7067 4.33644 37.3532
96.1933 4.32717 35.0912
96.1922 4.32658 34.9443
123.949 4.3308 34.9385
123.699 4.33219 35.2966
123.702 4.33076 34.9385
152.408 4.33512 34.9325
152.384 4.34478 37.3492
123.684 4.3404 37.3513
123.699 4.33219 35.2966
123.949 4.3308 34.9385
152.567 4.33514 34.9325
154.047 4.34503 37.3491
152.384 4.34478 37.3492
152.408 4.33512 34.9325
67.5047 4.32149 34.7692
67.5064 4.32222 34.9503
67.3902 4.3222 34.9503
152.41 4.3341 34.6772
152.567 4.33514 34.9325
152.408 4.33512 34.9325
123.952 4.19157 0.109685
152.748 4.19601 0.121114
152.41 4.3341 34.6772
152.408 4.33512 34.9325
123.949 4.3308 34.9385
123.702 4.33076 34.9385
95.933 4.18724 0.0985648
123.952 4.19157 0.109685
123.702 4.33076 34.9385
96.1922 4.32658 34.9443
67.1848 4.1828 0.0871553
95.933 4.18724 0.0985648
96.1922 4.32658 34.9443
96.095 4.32656 34.9443
67.5064 4.32222 34.9503
67.5047 4.32149 34.7692
123.689 46.7303 37.3498
123.684 4.3404 37.3513
123.624 4.3737 45.6844
123.628 46.6791 45.769
123.699 4.33219 35.2966
123.699 4.08713 35.2966
123.684 2.68923 37.3513
123.684 4.3404 37.3513
123.704 46.7429 35.2887
123.699 4.33219 35.2966
123.684 4.3404 37.3513
123.689 46.7303 37.3498
123.704 47.0078 35.2887
123.704 46.7429 35.2887
123.689 46.7303 37.3498
123.689 48.3794 37.3498
123.702 4.33076 34.9385
123.699 4.08713 35.2966
123.699 4.33219 35.2966
123.707 46.7453 34.8942
123.704 46.7429 35.2887
123.704 47.0078 35.2887
123.713 29.6145 33.7918
123.707 27.6742 34.5173
123.707 28.9627 34.5402
123.742 17.704 29.5437
123.707 17.7139 34.3403
123.707 21.9959 34.4164
123.744 33.4001 29.4449
123.713 29.6145 33.7918
123.707 28.9627 34.5402
123.707 33.3926 34.6189
123.953 17.6428 0.116946
123.742 17.704 29.5437
123.707 21.9959 34.4164
123.707 27.6742 34.5173
123.713 29.6145 33.7918
123.744 33.4001 29.4449
123.955 33.4424 0.125475
123.952 4.19157 0.109685
123.702 4.33076 34.9385
123.699 4.33219 35.2966
123.704 46.7429 35.2887
123.707 46.7453 34.8942
123.957 46.9568 0.132771
123.955 33.4424 0.125475
123.744 33.4001 29.4449
123.707 33.3926 34.6189
123.707 28.9627 34.5402
123.707 27.6742 34.5173
123.707 21.9959 34.4164
123.707 17.7139 34.3403
123.742 17.704 29.5437
123.953 17.6428 0.116946
151.848 46.4024 91.4655
152.324 46.4024 91.466
153.264 46.3893 93.6312
153.191 46.3893 93.6312
151.845 46.4007 91.7534
67.846 46.5169 71.9735
152.039 46.521 71.9749
151.848 46.4024 91.4655
68.025 46.3988 91.3765
152.091 46.5538 66.598
152.433 46.5538 66.5981
155.714 46.5212 71.9749
152.039 46.521 71.9749
67.7962 46.5497 66.576
152.091 46.5538 66.598
152.039 46.521 71.9749
67.846 46.5169 71.9735
67.4429 46.5497 66.576
67.7962 46.5497 66.576
67.846 46.5169 71.9735
64.19 46.5167 71.9734
152.097 46.5571 66.0471
152.433 46.5538 66.5981
152.091 46.5538 66.598
67.7909 46.5532 65.9986
67.7962 46.5497 66.576
67.4429 46.5497 66.576
123.689 46.7303 37.3498
123.628 46.6791 45.769
120.636 46.6496 50.5967
113.046 46.6194 55.4897
103.18 46.6273 54.1165
96.305 46.6725 46.6323
96.236 46.729 37.3518
97.5799 46.729 37.3517
122.264 46.7303 37.3499
152.377 46.7318 37.3478
152.097 46.5571 66.0471
152.091 46.5538 66.598
67.7962 46.5497 66.576
67.7909 46.5532 65.9986
67.5267 46.7275 37.3539
96.236 46.729 37.3518
96.305 46.6725 46.6323
103.18 46.6273 54.1165
113.046 46.6194 55.4897
120.636 46.6496 50.5967
123.628 46.6791 45.769
123.689 46.7303 37.3498
96.2209 46.7413 35.3207
97.5799 46.729 37.3517
96.236 46.729 37.3518
123.704 46.7429 35.2887
123.689 46.7303 37.3498
122.264 46.7303 37.3499
152.401 46.7465 34.9258
152.593 46.7465 34.926
154.076 46.7319 37.3476
152.377 46.7318 37.3478
123.979 46.7453 34.8945
152.401 46.7465 34.9258
152.377 46.7318 37.3478
123.689 46.7303 37.3498
123.704 46.7429 35.2887
123.707 46.7453 34.8942
123.979 46.7453 34.8945
123.704 46.7429 35.2887
96.2175 46.7441 34.8639
123.707 46.7453 34.8942
123.704 46.7429 35.2887
122.264 46.7303 37.3499
97.5799 46.729 37.3517
96.2209 46.7413 35.3207
95.915 46.7441 34.8635
96.2175 46.7441 34.8639
96.2209 46.7413 35.3207
67.5034 46.7429 34.8322
95.915 46.7441 34.8635
96.2209 46.7413 35.3207
96.236 46.729 37.3518
67.5267 46.7275 37.3539
67.3901 46.7429 34.8321
67.5034 46.7429 34.8322
67.5267 46.7275 37.3539
65.7962 46.7275 37.354
67.5018 46.744 34.6555
67.5034 46.7429 34.8322
67.3901 46.7429 34.8321
152.404 46.7484 34.6169
152.593 46.7465 34.926
152.401 46.7465 34.9258
123.957 46.9568 0.132771
152.741 46.9582 0.144193
152.404 46.7484 34.6169
152.401 46.7465 34.9258
123.979 46.7453 34.8945
123.707 46.7453 34.8942
95.9593 46.9555 0.121661
123.957 46.9568 0.132771
123.707 46.7453 34.8942
96.2175 46.7441 34.8639
67.1831 46.9542 0.110242
95.9593 46.9555 0.121661
96.2175 46.7441 34.8639
95.915 46.7441 34.8635
67.5034 46.7429 34.8322
67.5018 46.744 34.6555
96.1991 29.5999 33.8011
96.2042 28.9587 34.5374
94.6967 28.9584 34.5373
89.9852 29.5966 33.8032
123.713 29.6145 33.7918
123.707 28.9627 34.5402
96.2042 28.9587 34.5374
96.1991 29.5999 33.8011
145.646 29.6261 33.7843
148.071 28.9662 34.5427
123.707 28.9627 34.5402
123.713 29.6145 33.7918
96.169 33.3954 29.4428
96.1991 29.5999 33.8011
89.9852 29.5966 33.8032
94.6967 28.9584 34.5373
70.0558 28.9548 34.5347
70.0894 33.3909 29.4409
123.744 33.4001 29.4449
123.713 29.6145 33.7918
96.1991 29.5999 33.8011
96.169 33.3954 29.4428
149.818 33.4045 29.4468
149.831 28.9665 34.5429
148.071 28.9662 34.5427
145.646 29.6261 33.7843
123.713 29.6145 33.7918
123.744 33.4001 29.4449
96.236 46.729 37.3518
96.2101 4.33621 37.3533
96.2791 4.37331 46.6317
96.2911 24.0133 46.632
96.2936 28.0165 46.632
96.305 46.6725 46.6323
96.2209 46.7413 35.3207
96.236 46.729 37.3518
96.237 48.3997 37.3518
96.2211 47.0492 35.3223
96.1933 4.32717 35.0912
96.2101 4.33621 37.3533
96.236 46.729 37.3518
96.2209 46.7413 35.3207
96.1932 4.227 35.0906
96.2091 2.68762 37.3533
96.2101 4.33621 37.3533
96.1933 4.32717 35.0912
96.1922 4.32658 34.9443
96.1932 4.227 35.0906
96.1933 4.32717 35.0912
96.2175 46.7441 34.8639
96.2209 46.7413 35.3207
96.2211 47.0492 35.3223
96.1991 29.5999 33.8011
96.2033 27.691 34.5149
96.2042 28.9587 34.5374
96.1604 17.711 29.575
96.1959 17.7209 34.3377
96.199 21.9727 34.4132
96.169 33.3954 29.4428
96.1991 29.5999 33.8011
96.2042 28.9587 34.5374
96.2075 33.3879 34.6161
95.9413 17.6498 0.105835
96.1604 17.711 29.575
96.199 21.9727 34.4132
96.2033 27.691 34.5149
96.1991 29.5999 33.8011
96.169 33.3954 29.4428
95.951 33.4377 0.114361
95.933 4.18724 0.0985648
96.1922 4.32658 34.9443
96.1933 4.32717 35.0912
96.2209 46.7413 35.3207
96.2175 46.7441 34.8639
95.9593 46.9555 0.121661
95.951 33.4377 0.114361
96.169 33.3954 29.4428
96.2075 33.3879 34.6161
96.2042 28.9587 34.5374
96.2033 27.691 34.5149
96.199 21.9727 34.4132
96.1959 17.7209 34.3377
96.1604 17.711 29.575
95.9413 17.6498 0.105835
67.502 33.383 34.6132
67.5521 33.383 34.6132
67.5027 33.3829 34.6913
123.744 33.4001 29.4449
149.818 33.4045 29.4468
149.826 33.397 34.6216
123.707 33.3926 34.6189
96.169 33.3954 29.4428
123.744 33.4001 29.4449
123.707 33.3926 34.6189
96.2075 33.3879 34.6161
70.0894 33.3909 29.4409
96.169 33.3954 29.4428
96.2075 33.3879 34.6161
70.0547 33.3835 34.6135
123.955 33.4424 0.125475
152.743 33.4473 0.136901
152.406 33.3975 34.6219
149.826 33.397 34.6216
149.818 33.4045 29.4468
123.744 33.4001 29.4449
95.951 33.4377 0.114361
123.955 33.4424 0.125475
123.744 33.4001 29.4449
96.169 33.3954 29.4428
67.1836 33.4328 0.102943
95.951 33.4377 0.114361
96.169 33.3954 29.4428
70.0894 33.3909 29.4409
70.0547 33.3835 34.6135
67.5521 33.383 34.6132
67.502 33.383 34.6132
152.384 4.34478 37.3492
152.384 2.69091 37.3493
154.046 2.69101 37.3491
154.047 4.34503 37.3491
152.377 46.7318 37.3478
152.384 4.34478 37.3492
154.047 4.34503 37.3491
154.076 46.7319 37.3476
123.689 46.7303 37.3498
152.377 46.7318 37.3478
154.076 46.7319 37.3476
154.078 48.357 37.3476
123.689 48.3794 37.3498
123.684 4.3404 37.3513
152.384 4.34478 37.3492
152.377 46.7318 37.3478
123.689 46.7303 37.3498
123.684 2.68923 37.3513
152.384 2.69091 37.3493
152.384 4.34478 37.3492
123.684 4.3404 37.3513
122.264 46.7303 37.3499
123.689 46.7303 37.3498
123.689 48.3794 37.3498
122.264 48.3805 37.3499
122.264 4.34018 37.3514
123.684 4.3404 37.3513
123.689 46.7303 37.3498
122.264 46.7303 37.3499
122.264 2.68914 37.3514
123.684 2.68923 37.3513
123.684 4.3404 37.3513
122.264 4.34018 37.3514
97.7067 4.33644 37.3532
97.7117 2.6877 37.3532
122.264 2.68914 37.3514
122.264 4.34018 37.3514
97.5799 46.729 37.3517
97.7067 4.33644 37.3532
122.264 4.34018 37.3514
122.264 46.7303 37.3499
97.5749 48.3987 37.3517
97.5799 46.729 37.3517
122.264 46.7303 37.3499
122.264 48.3805 37.3499
96.236 46.729 37.3518
97.5799 46.729 37.3517
97.5749 48.3987 37.3517
96.237 48.3997 37.3518
96.2101 4.33621 37.3533
97.7067 4.33644 37.3532
97.5799 46.729 37.3517
96.236 46.729 37.3518
96.2091 2.68762 37.3533
97.7117 2.6877 37.3532
97.7067 4.33644 37.3532
96.2101 4.33621 37.3533
67.5286 4.33184 37.3553
67.5287 2.68593 37.3554
96.2091 2.68762 37.3533
96.2101 4.33621 37.3533
67.5267 46.7275 37.3539
67.5286 4.33184 37.3553
96.2101 4.33621 37.3533
96.236 46.729 37.3518
65.87 4.33158 37.3555
65.8729 2.68584 37.3555
67.5287 2.68593 37.3554
67.5286 4.33184 37.3553
65.7962 46.7275 37.354
65.87 4.33158 37.3555
67.5286 4.33184 37.3553
67.5267 46.7275 37.3539
65.7932 48.4222 37.354
65.7962 46.7275 37.354
67.5267 46.7275 37.3539
96.236 46.729 37.3518
96.237 48.3997 37.3518
123.955 33.4424 0.125475
152.743 33.4473 0.136901
152.741 46.9582 0.144193
123.957 46.9568 0.132771
95.951 33.4377 0.114361
123.955 33.4424 0.125475
123.957 46.9568 0.132771
95.9593 46.9555 0.121661
67.1836 33.4328 0.102943
95.951 33.4377 0.114361
95.9593 46.9555 0.121661
67.1831 46.9542 0.110242
95.9413 17.6498 0.105835
95.951 33.4377 0.114361
67.1836 33.4328 0.102943
67.1843 17.6571 0.0944282
123.953 17.6428 0.116946
123.955 33.4424 0.125475
95.951 33.4377 0.114361
95.9413 17.6498 0.105835
152.746 17.6355 0.128367
152.743 33.4473 0.136901
123.955 33.4424 0.125475
123.953 17.6428 0.116946
123.952 4.19157 0.109685
152.748 4.19601 0.121114
152.746 17.6355 0.128367
123.953 17.6428 0.116946
95.933 4.18724 0.0985648
123.952 4.19157 0.109685
123.953 17.6428 0.116946
95.9413 17.6498 0.105835
67.1848 4.1828 0.0871553
95.933 4.18724 0.0985648
95.9413 17.6498 0.105835
67.1843 17.6571 0.0944282
96.2211 47.0492 35.3223
97.5749 48.3987 37.3517
96.237 48.3997 37.3518
123.704 47.0078 35.2887
123.689 48.3794 37.3498
122.264 48.3805 37.3499
123.979 46.7453 34.8945
152.401 46.7465 34.9258
152.593 46.7465 34.926
154.078 48.357 37.3476
123.689 48.3794 37.3498
123.704 47.0078 35.2887
123.707 46.7453 34.8942
123.979 46.7453 34.8945
123.704 47.0078 35.2887
96.2175 46.7441 34.8639
123.707 46.7453 34.8942
123.704 47.0078 35.2887
122.264 48.3805 37.3499
97.5749 48.3987 37.3517
96.2211 47.0492 35.3223
95.915 46.7441 34.8635
96.2175 46.7441 34.8639
96.2211 47.0492 35.3223
67.3901 46.7429 34.8321
67.5034 46.7429 34.8322
95.915 46.7441 34.8635
96.2211 47.0492 35.3223
96.237 48.3997 37.3518
65.7932 48.4222 37.354
123.699 4.08713 35.2966
123.684 2.68923 37.3513
122.264 2.68914 37.3514
96.1932 4.227 35.0906
97.7117 2.6877 37.3532
96.2091 2.68762 37.3533
67.5064 4.32222 34.9503
67.5287 2.68593 37.3554
65.8729 2.68584 37.3555
67.3902 4.3222 34.9503
96.095 4.32656 34.9443
96.1932 4.227 35.0906
96.2091 2.68762 37.3533
67.5287 2.68593 37.3554
67.5064 4.32222 34.9503
96.1922 4.32658 34.9443
96.1932 4.227 35.0906
96.095 4.32656 34.9443
123.702 4.33076 34.9385
123.699 4.08713 35.2966
122.264 2.68914 37.3514
97.7117 2.6877 37.3532
96.1932 4.227 35.0906
96.1922 4.32658 34.9443
123.949 4.3308 34.9385
123.699 4.08713 35.2966
123.702 4.33076 34.9385
152.408 4.33512 34.9325
152.384 2.69091 37.3493
123.684 2.68923 37.3513
123.699 4.08713 35.2966
123.949 4.3308 34.9385
152.567 4.33514 34.9325
154.046 2.69101 37.3491
152.384 2.69091 37.3493
152.408 4.33512 34.9325
67.5047 4.44566 34.7689
67.5064 4.32222 34.9503
67.3902 4.3222 34.9503
152.41 4.50899 34.6769
152.567 4.33514 34.9325
152.408 4.33512 34.9325
96.1604 17.711 29.575
96.199 21.9727 34.4132
70.0573 21.9507 34.4103
70.09 17.7177 29.6045
123.742 17.704 29.5437
123.707 21.9959 34.4164
96.199 21.9727 34.4132
96.1604 17.711 29.575
149.837 17.6973 29.5142
149.839 22.0179 34.4194
123.707 21.9959 34.4164
123.742 17.704 29.5437
96.1604 17.711 29.575
96.1959 17.7209 34.3377
70.0583 17.7275 34.3352
70.09 17.7177 29.6045
123.742 17.704 29.5437
123.707 17.7139 34.3403
96.1959 17.7209 34.3377
96.1604 17.711 29.575
149.837 17.6973 29.5142
149.844 17.7073 34.3428
123.707 17.7139 34.3403
123.742 17.704 29.5437
123.953 17.6428 0.116946
152.746 17.6355 0.128367
152.411 17.7067 34.343
149.844 17.7073 34.3428
149.837 17.6973 29.5142
123.742 17.704 29.5437
95.9413 17.6498 0.105835
123.953 17.6428 0.116946
123.742 17.704 29.5437
96.1604 17.711 29.575
67.1843 17.6571 0.0944282
95.9413 17.6498 0.105835
96.1604 17.711 29.575
70.09 17.7177 29.6045
70.0583 17.7275 34.3352
67.5001 17.7282 34.335
67.502 33.383 34.6132
67.5521 33.383 34.6132
67.5024 37.2013 34.6811
123.707 28.9627 34.5402
148.071 28.9662 34.5427
149.831 28.9665 34.5429
149.826 33.397 34.6216
123.707 33.3926 34.6189
96.2042 28.9587 34.5374
123.707 28.9627 34.5402
123.707 33.3926 34.6189
96.2075 33.3879 34.6161
70.0558 28.9548 34.5347
94.6967 28.9584 34.5373
96.2042 28.9587 34.5374
96.2075 33.3879 34.6161
70.0547 33.3835 34.6135
96.2033 27.691 34.5149
96.2042 28.9587 34.5374
94.6967 28.9584 34.5373
89.1264 27.6953 34.5142
123.707 27.6742 34.5173
123.707 28.9627 34.5402
96.2042 28.9587 34.5374
96.2033 27.691 34.5149
146.136 27.6605 34.5193
148.071 28.9662 34.5427
123.707 28.9627 34.5402
123.707 27.6742 34.5173
123.707 21.9959 34.4164
149.839 22.0179 34.4194
149.831 28.9665 34.5429
148.071 28.9662 34.5427
146.136 27.6605 34.5193
123.707 27.6742 34.5173
96.199 21.9727 34.4132
123.707 21.9959 34.4164
123.707 27.6742 34.5173
96.2033 27.691 34.5149
70.0573 21.9507 34.4103
96.199 21.9727 34.4132
96.2033 27.691 34.5149
89.1264 27.6953 34.5142
94.6967 28.9584 34.5373
70.0558 28.9548 34.5347
70.0583 17.7275 34.3352
70.0573 21.9507 34.4103
70.0558 28.9548 34.5347
70.0547 33.3835 34.6135
67.5521 33.383 34.6132
67.502 33.383 34.6132
67.5001 17.7282 34.335
96.1959 17.7209 34.3377
96.199 21.9727 34.4132
70.0573 21.9507 34.4103
70.0583 17.7275 34.3352
123.707 17.7139 34.3403
123.707 21.9959 34.4164
96.199 21.9727 34.4132
96.1959 17.7209 34.3377
149.844 17.7073 34.3428
149.839 22.0179 34.4194
123.707 21.9959 34.4164
123.707 17.7139 34.3403
152.411 17.7067 34.343
152.406 33.3975 34.6219
149.826 33.397 34.6216
149.831 28.9665 34.5429
149.839 22.0179 34.4194
149.844 17.7073 34.3428
68.0302 4.33724 91.731
68.254 4.548 91.4027
68.0302 4.54927 91.7298
66.5548 47.8326 93.6331
66.7281 3.11143 93.6409
68.0302 4.33724 91.731
68.0302 4.54927 91.7298
68.0261 46.4716 91.4912
70.0573 21.9507 34.4103
70.0583 17.7275 34.3352
70.09 17.7177 29.6045
70.0547 33.3835 34.6135
70.0558 28.9548 34.5347
70.0894 33.3909 29.4409
96.2033 27.691 34.5149
96.1991 29.5999 33.8011
89.9852 29.5966 33.8032
89.1264 27.6953 34.5142
123.707 27.6742 34.5173
123.713 29.6145 33.7918
96.1991 29.5999 33.8011
96.2033 27.691 34.5149
146.136 27.6605 34.5193
145.646 29.6261 33.7843
123.713 29.6145 33.7918
123.707 27.6742 34.5173
149.839 22.0179 34.4194
149.844 17.7073 34.3428
149.837 17.6973 29.5142
149.826 33.397 34.6216
149.831 28.9665 34.5429
149.818 33.4045 29.4468
6 0 1 2 3 4 5
4 6 7 8 9
5 10 11 12 13 14
3 15 16 17
4 18 19 20 21
5 22 23 24 25 26
4 27 28 29 30
3 31 32 33
6 34 35 36 37 38 39
4 40 41 42 43
4 44 45 46 47
3 48 49 50
3 51 52 53
3 54 55 56
6 57 58 59 60 61 62
3 63 64 65
3 66 67 68
6 69 70 71 72 73 74
3 75 76 77
3 78 79 80
6 81 82 83 84 85 86
3 87 88 89
6 90 91 92 93 94 95
3 96 97 98
5 99 100 101 102 103
3 104 105 106
3 107 108 109
7 110 111 112 113 114 115 116
3 117 118 119
3 120 121 122
3 123 124 125
3 126 127 128
8 129 130 131 132 133 134 135 136
3 137 138 139
3 140 141 142
3 143 144 145
4 146 147 148 149
4 150 151 152 153
4 154 155 156 157
3 158 159 160
3 161 162 163
4 164 165 166 167
4 168 169 170 171
4 172 173 174 175
3 176 177 178
3 179 180 181
4 182 183 184 185
4 186 187 188 189
4 190 191 192 193
4 194 195 196 197
5 198 199 200 201 202
4 203 204 205 206
5 207 208 209 210 211
3 212 213 214
3 215 216 217
6 218 219 220 221 222 223
3 224 225 226
3 227 228 229
3 230 231 232
6 233 234 235 236 237 238
3 239 240 241
6 242 243 244 245 246 247
3 248 249 250
3 251 252 253
7 254 255 256 257 258 259 260
5 261 262 263 264 265
4 266 267 268 269
7 270 271 272 273 274 275 276
3 277 278 279
6 280 281 282 283 284 285
6 286 287 288 289 290 291
4 292 293 294 295
3 296 297 298
3 299 300 301
8 302 303 304 305 306 307 308 309
3 310 311 312
5 313 314 315 316 317
4 318 319 320 321
7 322 323 324 325 326 327 328
3 329 330 331
3 332 333 334
6 335 336 337 338 339 340
4 341 342 343 344
4 345 346 347 348
4 349 350 351 352
3 353 354 355
3 356 357 358
9 359 360 361 362 363 364 365 366 367
13 368 369 370 371 372 373 374 375 376 377 378 379 380
3 381 382 383
3 384 385 386
4 387 388 389 390
5 391 392 393 394 395
3 396 397 398
6 399 400 401 402 403 404
3 405 406 407
5 408 409 410 411 412
4 413 414 415 416
3 417 418 419
3 420 421 422
6 423 424 425 426 427 428
4 429 430 431 432
6 433 434 435 436 437 438
4 439 440 441 442
4 443 444 445 446
4 447 448 449 450
4 451 452 453 454
3 455 456 457
3 458 459 460
3 461 462 463
3 464 465 466
4 467 468 469 470
7 471 472 473 474 475 476 477
15 478 479 480 481 482 483 484 485 486 487 488 489 490 491 492
5 493 494 495 496 497
4 498 499 500 501
4 502 503 504 505
4 506 507 508 509
4 510 511 512 513
3 514 515 516
3 517 518 519
9 520 521 522 523 524 525 526 527 528
13 529 530 531 532 533 534 535 536 537 538 539 540 541
3 542 543 544
3 545 546 547
4 548 549 550 551
5 552 553 554 555 556
3 557 558 559
6 560 561 562 563 564 565
3 566 567 568
5 569 570 571 572 573
4 574 575 576 577
3 578 579 580
3 581 582 583
6 584 585 586 587 588 589
4 590 591 592 593
6 594 595 596 597 598 599
4 600 601 602 603
4 604 605 606 607
4 608 609 610 611
6 612 613 614 615 616 617
4 618 619 620 621
6 622 623 624 625 626 627
6 628 629 630 631 632 633
4 634 635 636 637
4 638 639 640 641
4 642 643 644 645
3 646 647 648
3 649 650 651
3 652 653 654
3 655 656 657
4 658 659 660 661
7 662 663 664 665 666 667 668
15 669 670 671 672 673 674 675 676 677 678 679 680 681 682 683
3 684 685 686
4 687 688 689 690
4 691 692 693 694
4 695 696 697 698
6 699 700 701 702 703 704
4 705 706 707 708
7 709 710 711 712 713 714 715
4 716 717 718 719
4 720 721 722 723
5 724 725 726 727 728
4 729 730 731 732
4 733 734 735 736
4 737 738 739 740
4 741 742 743 744
4 745 746 747 748
4 749 750 751 752
4 753 754 755 756
4 757 758 759 760
4 761 762 763 764
4 765 766 767 768
4 769 770 771 772
4 773 774 775 776
4 777 778 779 780
4 781 782 783 784
4 785 786 787 788
5 789 790 791 792 793
4 794 795 796 797
4 798 799 800 801
4 802 803 804 805
4 806 807 808 809
4 810 811 812 813
4 814 815 816 817
4 818 819 820 821
4 822 823 824 825
4 826 827 828 829
3 830 831 832
3 833 834 835
6 836 837 838 839 840 841
3 842 843 844
6 845 846 847 848 849 850
3 851 852 853
6 854 855 856 857 858 859
3 860 861 862
3 863 864 865
4 866 867 868 869
5 870 871 872 873 874
3 875 876 877
6 878 879 880 881 882 883
3 884 885 886
5 887 888 889 890 891
4 892 893 894 895
3 896 897 898
3 899 900 901
4 902 903 904 905
4 906 907 908 909
4 910 911 912 913
4 914 915 916 917
4 918 919 920 921
4 922 923 924 925
6 926 927 928 929 930 931
4 932 933 934 935
6 936 937 938 939 940 941
3 942 943 944
5 945 946 947 948 949
4 950 951 952 953
5 954 955 956 957 958
4 959 960 961 962
4 963 964 965 966
4 967 968 969 970
6 971 972 973 974 975 976
4 977 978 979 980
6 981 982 983 984 985 986
7 987 988 989 990 991 992 993
4 994 995 996 997
4 998 999 1000 1001
4 1002 1003 1004 1005
6 1006 1007 1008 1009 1010 1011
3 1012 1013 1014
5 1015 1016 1017 1018 1019
3 1020 1021 1022
3 1023 1024 1025
4 1026 1027 1028 1029
4 1030 1031 1032 1033
4 1034 1035 1036 1037
3 1038 1039 1040
3 1041 1042 1043
