ply
format ascii 1.0
element vertex 22
property double x
property double y
property double z
element face 36
property list uchar int vertex_indices
end_header
-419.759 -341.81 49.8372
-383.548 -377.103 49.6496
-425.201 -347.618 44.9998
-378.453 -372.062 38.2472
-389.098 -382.834 44.8005
-400.099 -425.956 44.1524
-399.885 -425.514 37.1648
-382.519 -408.054 43.9244
-391.529 -417.465 51.3834
-375.121 -400.326 37.7995
-383.141 -408.483 37.5939
-389.05 -382.88 37.9749
-414.495 -336.607 44.9272
-414.561 -336.952 38.5317
-378.291 -371.807 44.6986
-425.055 -347.759 38.2605
-444.432 -383.053 44.1577
-444.094 -382.762 37.5092
-427.343 -365.537 44.3147
-436.021 -374.373 51.4044
-419.78 -357.837 38.1356
-427.837 -366.097 37.928
3 2 0 1
3 5 6 8
3 9 7 10
3 1 0 12
3 17 6 5
3 16 19 17
3 21 18 20
3 2 15 13
3 14 3 1
3 4 11 15
3 18 7 9
3 18 19 8
3 19 16 5
3 13 3 14
3 17 21 10
3 10 21 20
3 3 13 15
3 1 4 2
3 8 10 7
3 8 6 10
3 12 14 1
3 5 16 17
3 19 18 21
3 17 19 21
3 0 13 12
3 0 2 13
3 3 11 4
3 1 3 4
3 15 2 4
3 9 20 18
3 8 7 18
3 5 8 19
3 14 12 13
3 10 6 17
3 20 9 10
3 15 11 3
