ply
format ascii 1.0
element vertex 268
property double x
property double y
property double z
element face 488
property list uchar int vertex_indices
end_header
36.4561 -0.271344 4.78828
-26.3678 19.9151 28.7995
36.178 -1.38564 4.6363
39.2392 10.8797 6.30921
-5.05753 4.49867 2.14211
-0.654037 22.3595 5.45295
40.1021 16.509 13.3134
-38.5602 53.6592 32.859
-41.1227 53.269 32.3189
-39.9192 52.4642 31.2834
0.0450122 22.6521 5.51847
8.98044 12.2015 25.0682
4.61941 11.6399 21.3494
-4.48187 6.83359 2.57493
-23.8064 24.0235 25.3535
-1.47997 19.0095 4.83196
-32.6003 20.3442 35.7005
6.26297 -21.4217 22.7562
6.43198 0.400688 23.31
-36.6057 -28.6029 24.4408
-36.6346 -29.4393 24.3479
-4.40445 1.01373 1.52332
-5.17514 4.90859 0.0637639
-0.532157 20.3773 0.040752
-38.9396 53.8093 33.0503
-38.0603 20.7489 39.2008
-40.9672 53.165 32.1851
-54.6291 -18.732 14.2315
2.40718 34.1396 7.63945
-1.6297 14.5077 4.01475
9.95364 11.8155 24.088
-15.0055 35.8033 9.84645
-21.4934 -18.7075 14.5123
-24.5194 -22.4565 17.969
6.14537 -19.6652 23.7901
8.18625 8.52397 24.5203
16.583 4.88789 31.851
2.45307 -28.4054 20.5634
33.3514 2.39137 18.3759
2.3944 -28.5411 20.3116
2.55051 -28.1799 20.9816
-8.81937 -52.0243 24.5908
5.40886 13.833 21.9469
2.15263 -28.141 20.1764
2.6028 -28.5371 20.7563
-3.67317 10.1137 3.18296
1.82549 -29.8272 20.4539
1.56287 -27.1649 19.8466
11.7823 10.96 26.7057
2.67021 -28.9976 20.4659
10.5006 8.16961 25.8868
-4.54576 -19.001 14.5997
-38.0822 19.3818 38.8718
-27.0829 20.0993 32.2046
-21.3176 20.9503 28.8289
-3.73783 9.85145 3.13435
-35.9498 -29.0446 23.9874
-37.5285 -29.2908 24.9061
-26.1458 -49.9406 15.3263
-32.7648 20.5376 39.4083
-22.4066 19.5297 22.2301
-27.2125 19.9973 30.2002
-25.5788 -49.956 14.646
-23.7801 19.797 27.0963
3.07476 -28.0917 20.7249
-22.2296 23.0473 22.5871
-22.5494 23.1625 23.1329
1.94862 -28.8356 20.0409
-22.2346 22.9469 22.5769
-38.0629 20.5867 39.1618
3.11131 -28.0675 20.7471
2.25317 34.1513 7.63878
-20.1439 -17.7941 13.6758
-21.6048 -17.4204 16.8768
-34.811 -27.265 23.5358
-41.4539 -32.217 26.8854
-27.5641 49.308 27.3149
-11.0122 33.1328 6.41046
-27.9876 44.6012 27.4987
-2.17354 18.0977 0.044662
-14.1044 19.0468 14.7539
-22.3763 20.1324 22.2913
-13.073 19.1539 12.9359
32.352 1.34348 18.6535
15.0757 -2.83867 28.3741
7.06975 0.126768 23.8667
-0.678879 -0.503335 15.9158
-37.1036 -28.974 24.6918
-0.551772 -2.72515 17.4353
-3.26117 6.57364 2.54986
-4.43393 1.02363 0.0685097
-12.0654 34.162 7.74055
-39.893 54.1866 33.531
-36.5326 50.2613 31.8209
-39.3716 52.098 30.8121
-36.8879 -29.5853 24.4813
-2.20457 0.834296 11.6789
-34.9335 20.7932 35.7694
-33.8152 20.8033 35.8224
-32.7494 20.7971 39.4308
-22.3341 20.9696 22.3763
-27.771 20.8727 32.8267
-15.2495 21.0554 17.8629
-34.8473 20.7876 37.2104
5.78881 -48.5683 2.1821
2.59648 -47.0541 13.4406
6.47312 -48.8743 2.17778
-15.0077 -39.2706 2.31334
9.35683 -50.1635 2.15958
-33.8834 20.8027 35.8191
-2.20065 14.6785 4.03538
5.53214 -48.4043 8.54183
-0.394727 20.5136 5.12363
-14.2125 -39.5604 10.7983
-4.46772 -43.8049 25.2286
-9.44067 -53.2966 24.4233
2.23259 -28.8695 20.7683
0.246243 -28.243 19.0426
-52.1299 -22.9918 18.2136
-55.7871 -17.9359 13.481
10.2092 11.7204 24.4465
-53.9399 -16.9848 17.9884
-17.0294 19.7375 16.308
-16.611 19.9598 14.9225
-26.0096 -35.7389 17.1161
-25.6969 -45.8563 15.5942
-15.4465 37.4661 12.0108
-25.5066 -49.8087 14.5546
-26.2541 -34.2838 18.638
-37.539 -29.2986 24.9114
-25.5489 -38.4807 14.2485
-24.3697 -19.4815 18.2709
-37.879 -29.7975 24.6694
2.52344 -28.1853 20.9929
-23.2311 -21.714 17.2907
0.764449 -25.8434 19.4001
-6.83448 -17.4795 11.1883
-21.4927 -17.449 16.6312
-54.562 -17.3051 16.4705
23.3036 14.5114 33.6192
21.4263 16.2811 35.5915
-2.07976 -39.0137 17.4379
10.6326 19.852 26.208
17.7364 2.77206 30.0703
21.6443 15.2108 32.6487
38.9847 21.7409 18.8243
2.21005 -29.968 20.1725
9.94905 11.8461 24.0729
10.7885 6.25063 26.8336
13.2249 10.2628 28.7774
5.98821 -1.65426 23.0039
36.8922 -1.96932 2.72437
-9.12595 -26.5435 10.9455
36.2121 -2.92223 3.53695
-21.5582 19.8541 28.7039
36.0952 -3.10667 2.73523
25.1385 9.77686 22.2628
30.0704 6.27537 18.5779
-40.0204 -28.7748 23.6993
-37.5383 -29.9602 24.8237
-30.9256 -32.4282 20.5143
-26.3678 19.9151 28.7995
-28.9584 15.76 32.2846
-29.2484 20.1955 33.5767
-25.2147 -36.2742 16.5667
-25.6593 21.0516 27.8463
-25.9403 -50.6933 15.1033
-23.1655 19.7408 26.1458
-23.5218 20.6096 26.1764
-24.4792 22.9443 26.2587
-22.7545 23.0233 23.4438
-17.1148 20.3906 16.0385
-11.5231 15.6095 3.65424
-15.4105 18.9334 12.2639
-17.4907 23.2642 14.8529
-16.9555 19.1723 16.5412
-13.9367 18.7055 8.18359
-12.7871 18.9041 12.2885
4.09829 18.7154 12.4474
-20.3218 25.4869 29.3459
-16.3915 18.9443 12.2546
-29.7656 28.1056 35.8809
-14.1973 18.9198 12.2753
-22.3717 23.0408 22.8191
36.6745 24.5826 20.9311
32.1267 3.7581 16.7064
29.8384 3.70138 21.5446
30.3307 6.69497 22.4961
34.2661 13.5546 18.6938
32.3266 4.67352 16.8921
1.0796 -51.5431 11.9631
31.8229 4.25488 17.6857
29.6297 2.43208 21.1412
-29.2352 20.8654 31.4074
-30.6909 20.8486 32.1645
35.1069 6.98422 12.5117
36.4619 -3.33066 2.73177
-29.044 21.7515 30.4905
-7.79957 -6.62315 0.0804655
-6.98205 -3.03098 0.0752629
-26.8853 19.9433 29.2283
-26.3997 19.864 28.8424
-26.0689 19.886 28.3037
-27.519 19.7893 30.6648
-22.9874 19.3064 26.1305
-20.4366 19.491 21.9251
-11.9345 18.8945 12.2966
10.5014 11.6116 24.8565
-18.5032 20.3908 15.9851
3.15906 14.345 14.5562
-15.9711 19.814 14.5632
32.2287 6.09778 24.2425
23.5477 -7.88775 21.0984
34.013 3.08501 18.1922
13.4027 -2.59325 29.3949
13.9485 -2.22014 29.3126
-41.4345 -27.5771 23.1191
1.79268 -28.1602 19.9623
35.6047 19.6838 19.9373
7.45705 59.8761 1.19151
3.19563 37.9739 8.34739
-2.62309 9.67672 3.12279
4.53594 -50.967 7.86944
-15.1653 -44.4806 12.4499
-9.49806 -53.3062 24.4913
-6.01219 -6.80493 0.0797377
-9.72461 -52.9534 24.01
8.17925 63.5879 -0.0212223
-12.561 34.1685 7.74313
-46.2654 56.7082 36.7438
4.1371 15.762 15.3945
-29.9514 -49.8372 19.8929
1.54366 15.6606 12.0761
16.8669 16.2601 31.6831
14.1683 16.1545 28.2301
-36.5214 52.8524 31.8311
-2.5239 14.7752 4.04706
-2.68032 14.5527 3.00532
6.53834 16.9705 22.8018
9.95951 16.7352 25.7436
-37.5287 -29.3031 24.9046
-38.2006 -49.6132 29.7918
-47.5592 -49.5436 18.3968
0.0256784 -1.12105 17.8724
5.37678 0.853897 22.3889
-41.0303 20.7136 40.95
-41.4242 20.7085 41.2847
-40.9389 20.7143 40.9841
-25.7456 20.9131 27.9624
-35.0409 20.7591 43.1829
-29.2915 20.8544 33.7686
-48.3208 -56.7364 17.3252
-37.9247 -62.5581 29.8683
-25.8662 20.9111 28.1599
-29.9547 -58.1927 20.1602
-24.3014 -50.0789 2.29145
-52.4742 -49.5938 1.77095
-23.6575 20.9404 26.1881
-34.3482 20.7644 43.4412
-23.4154 20.9444 25.7974
-4.68255 21.1503 18.5236
-19.4186 21.0179 17.6023
11.4285 10.1898 26.4797
10.5324 11.5642 24.9106
-18.3777 21.0273 17.6674
-32.297 20.8276 33.5292
-34.0274 20.8004 36.0269
-32.6925 20.8135 35.8755
3 6 3 0
3 40 44 37
3 49 39 37
3 40 37 64
3 39 64 37
3 72 137 32
3 137 73 131
3 76 78 126
3 106 108 111
3 114 113 105
3 118 121 138
3 125 124 128
3 134 73 137
3 155 153 151
3 122 123 171
3 123 174 171
3 176 173 172
3 190 105 104
3 194 193 197
3 224 115 226
3 222 108 106
3 115 190 226
3 239 230 238
3 254 251 252
3 245 246 247
3 247 25 245
3 109 266 98
3 267 98 266
3 97 109 265
3 109 98 265
3 258 101 99
3 267 193 98
3 257 259 54
3 242 241 252
3 255 254 231
3 229 92 8
3 24 26 8
3 9 26 24
3 235 94 9
3 76 94 235
3 126 91 228
3 228 91 77
3 76 235 93
3 235 7 93
3 242 251 256
3 225 21 90
3 93 94 78
3 213 211 38
3 111 222 106
3 82 210 80
3 204 201 202
3 202 201 200
3 79 23 227
3 79 22 90
3 22 199 90
3 153 196 151
3 189 185 191
3 188 3 218
3 14 179 66
3 260 206 178
3 177 182 210
3 172 173 180
3 53 257 101
3 168 63 167
3 257 168 259
3 167 204 205
3 168 167 259
3 264 65 183
3 122 210 182
3 176 172 180
3 62 127 125
3 164 125 128
3 81 208 180
3 81 100 261
3 261 100 68
3 180 174 176
3 65 68 183
3 66 183 170
3 170 169 14
3 169 170 165
3 183 68 100
3 81 60 202
3 81 248 100
3 1 61 203
3 201 203 162
3 165 253 169
3 99 250 163
3 99 59 249
3 62 166 58
3 62 58 127
3 241 231 254
3 27 158 118
3 132 56 32
3 75 159 132
3 241 242 231
3 253 165 197
3 118 158 216
3 164 128 124
3 160 124 130
3 151 196 155
3 191 156 157
3 25 247 69
3 52 69 247
3 103 25 69
3 69 52 16
3 101 181 250
3 54 260 178
3 179 54 102
3 51 152 136
3 120 30 147
3 263 120 207
3 51 136 96
3 30 120 50
3 48 262 263
3 230 147 209
3 240 129 57
3 240 159 75
3 95 159 240
3 240 57 87
3 87 19 56
3 19 74 56
3 124 125 164
3 33 131 73
3 119 138 27
3 121 27 138
3 249 59 258
3 200 161 202
3 53 163 61
3 178 206 80
3 80 182 177
3 175 180 173
3 97 265 200
3 52 200 162
3 200 248 161
3 194 197 165
3 204 167 1
3 107 113 223
3 236 45 237
3 237 15 236
3 237 45 79
3 71 220 28
3 5 71 28
3 15 5 10
3 15 110 236
3 236 110 45
3 89 13 55
3 21 4 13
3 21 225 198
3 86 88 243
3 243 12 86
3 86 96 88
3 2 195 6
3 111 108 222
3 105 41 114
3 143 187 186
3 192 186 38
3 187 213 38
3 88 150 243
3 18 150 85
3 244 12 243
3 35 11 42
3 11 239 238
3 85 148 35
3 149 11 35
3 133 117 116
3 233 239 11
3 36 149 148
3 47 217 117
3 43 217 47
3 117 146 141
3 43 39 67
3 39 49 146
3 64 39 43
3 84 150 50
3 41 224 226
3 226 223 41
3 196 153 155
3 156 191 185
3 211 187 139
3 144 142 140
3 145 184 3
3 185 189 157
3 218 184 145
3 141 146 46
3 146 49 46
3 40 133 116
3 17 133 40
3 17 84 34
3 143 36 215
3 211 139 143
3 139 140 36
3 0 2 6
3 37 44 49
3 64 70 40
3 32 131 74
3 32 137 131
3 32 74 132
3 74 19 132
3 19 87 132
3 87 57 132
3 57 129 132
3 129 75 132
3 126 78 91
3 78 77 91
3 105 107 104
3 105 113 107
3 138 119 118
3 125 130 124
3 125 127 130
3 137 72 134
3 122 175 123
3 123 175 173
3 123 173 174
3 174 173 176
3 190 104 107
3 226 190 223
3 190 107 223
3 238 230 232
3 239 234 230
3 255 256 251
3 254 255 251
3 25 103 97
3 245 25 97
3 103 266 97
3 266 109 97
3 266 103 267
3 265 193 194
3 265 98 193
3 249 258 99
3 101 250 99
3 250 253 193
3 267 250 193
3 101 257 54
3 259 264 54
3 264 102 54
3 102 260 54
3 252 251 242
3 8 92 24
3 24 7 9
3 9 7 235
3 126 31 94
3 76 126 94
3 228 31 126
3 93 78 76
3 93 24 92
3 93 7 24
3 93 92 229
3 90 89 23
3 90 21 89
3 89 221 23
3 221 29 23
3 29 112 23
3 112 10 23
3 10 28 23
3 28 220 219
3 28 219 23
3 219 227 23
3 94 31 78
3 229 8 93
3 9 93 26
3 31 228 78
3 9 94 93
3 228 77 78
3 26 93 8
3 38 211 83
3 211 212 83
3 206 82 80
3 210 122 80
3 122 205 80
3 202 205 204
3 90 23 79
3 199 198 225
3 90 199 225
3 188 195 3
3 2 0 195
3 0 3 195
3 3 184 218
3 66 179 183
3 14 181 179
3 179 102 183
3 102 264 183
3 260 82 206
3 260 102 82
3 210 82 177
3 258 53 101
3 63 257 53
3 168 257 63
3 259 205 264
3 259 167 205
3 205 122 264
3 122 171 264
3 264 171 174
3 65 264 174
3 182 175 122
3 125 166 62
3 180 60 81
3 261 208 81
3 208 261 174
3 180 208 174
3 261 68 65
3 261 65 174
3 14 66 170
3 170 100 165
3 170 183 100
3 100 248 165
3 202 161 248
3 81 202 248
3 203 201 1
3 203 163 162
3 203 61 163
3 169 253 181
3 181 253 250
3 169 181 14
3 163 59 99
3 58 160 130
3 127 58 130
3 254 252 241
3 118 119 27
3 32 33 134
3 32 56 33
3 32 134 72
3 132 20 56
3 95 20 132
3 95 132 159
3 242 256 255
3 231 242 255
3 197 193 253
3 216 121 118
3 157 189 191
3 247 246 52
3 103 16 267
3 16 103 69
3 250 267 16
3 250 16 163
3 16 162 163
3 16 52 162
3 101 54 179
3 181 101 179
3 178 154 54
3 102 154 80
3 102 54 154
3 102 80 82
3 80 177 82
3 230 209 232
3 150 51 96
3 150 96 209
3 150 209 30
3 150 30 50
3 209 96 232
3 50 263 262
3 50 120 263
3 263 207 48
3 207 120 234
3 48 207 234
3 234 120 147
3 147 30 209
3 234 147 230
3 75 129 240
3 95 87 20
3 95 240 87
3 56 20 87
3 74 131 33
3 56 74 33
3 124 160 125
3 125 160 58
3 125 58 166
3 73 134 33
3 216 158 27
3 121 216 27
3 59 163 53
3 258 59 53
3 63 53 1
3 1 53 61
3 63 1 167
3 80 154 178
3 80 175 182
3 80 205 175
3 205 202 60
3 175 205 60
3 175 60 180
3 200 245 97
3 52 246 245
3 200 52 245
3 201 162 200
3 200 194 248
3 200 265 194
3 165 248 194
3 1 201 204
3 71 219 220
3 71 5 219
3 237 5 15
3 219 5 237
3 22 55 13
3 22 79 55
3 22 13 4
3 199 4 198
3 79 45 55
3 219 79 227
3 22 4 199
3 219 237 79
3 28 10 5
3 10 112 15
3 15 29 110
3 15 112 29
3 45 29 221
3 45 110 29
3 45 221 55
3 55 221 89
3 13 89 21
3 198 4 21
3 12 42 232
3 86 12 96
3 42 238 232
3 12 232 96
3 88 136 152
3 88 96 136
3 6 188 145
3 6 195 188
3 190 115 41
3 105 190 41
3 115 224 41
3 212 192 83
3 143 144 187
3 192 143 186
3 212 143 192
3 38 83 192
3 38 186 187
3 88 51 150
3 88 152 51
3 243 150 244
3 150 18 244
3 244 18 35
3 12 244 35
3 42 12 35
3 238 42 11
3 35 18 85
3 35 148 149
3 117 141 46
3 116 117 46
3 133 135 117
3 34 135 133
3 150 135 34
3 150 34 214
3 150 214 85
3 11 149 233
3 233 142 239
3 36 148 214
3 233 140 142
3 148 85 214
3 233 149 36
3 233 36 140
3 117 135 47
3 117 67 146
3 117 217 67
3 67 217 43
3 146 67 39
3 43 47 64
3 47 135 70
3 47 70 64
3 135 17 70
3 150 17 135
3 84 17 150
3 143 84 50
3 143 50 262
3 143 262 48
3 143 48 144
3 48 234 144
3 234 239 142
3 234 142 144
3 223 113 114
3 41 223 114
3 139 187 144
3 211 213 187
3 140 139 144
3 3 6 145
3 157 156 185
3 145 188 218
3 49 44 116
3 46 49 116
3 116 44 40
3 70 17 40
3 34 133 17
3 84 215 214
3 34 84 214
3 84 143 215
3 36 214 215
3 143 212 211
3 36 143 139
